<mxfile host="app.diagrams.net" modified="2023-10-25T03:42:15.750Z" agent="Mozilla/5.0 (Windows NT 10.0; Win64; x64) AppleWebKit/537.36 (KHTML, like Gecko) Chrome/118.0.0.0 Safari/537.36" etag="6k2NUpMBin9wh6bgU62f" version="22.0.7" type="onedrive">
  <diagram name="Page-1" id="App9Iwsq-mg03enMHrIf">
    <mxGraphModel grid="1" page="1" gridSize="10" guides="1" tooltips="1" connect="1" arrows="1" fold="1" pageScale="1" pageWidth="2336" pageHeight="1654" background="#ffffff" math="0" shadow="0">
      <root>
        <mxCell id="0" />
        <mxCell id="1" parent="0" />
        <UserObject label="%Entity_Set%" Entity_Set="Event" Key="Year" Other_Attributes="Host, EventAddentance, AttendanceAvg, Matches, Champion, RunnerUp, TopScorer" placeholders="1" id="K_F7ODO9CJiv-tPrbr26-68">
          <mxCell style="whiteSpace=wrap;html=1;strokeWidth=2;" vertex="1" parent="1">
            <mxGeometry x="947" y="90" width="50" height="30" as="geometry" />
          </mxCell>
        </UserObject>
        <UserObject label="%Entity_Set%" Entity_Set="Match" Key="MatchID" Other_Attributes="Date, Score, Round, Venue, Attendance, Referee, Notes, Year" placeholders="1" id="K_F7ODO9CJiv-tPrbr26-69">
          <mxCell style="whiteSpace=wrap;html=1;strokeWidth=2;" vertex="1" parent="1">
            <mxGeometry x="1120" y="610" width="60" height="30" as="geometry" />
          </mxCell>
        </UserObject>
        <UserObject label="%Entity_Set%" Entity_Set="Venue" Key="VenueName" Other_Attributes="Location" placeholders="1" id="K_F7ODO9CJiv-tPrbr26-70">
          <mxCell style="whiteSpace=wrap;html=1;strokeWidth=2;" vertex="1" parent="1">
            <mxGeometry x="1290" y="277.5" width="60" height="30" as="geometry" />
          </mxCell>
        </UserObject>
        <UserObject label="%Entity_Set%" Entity_Set="Team" Key="TeamName, Year" Other_Attributes="Manager, Captain" placeholders="1" id="K_F7ODO9CJiv-tPrbr26-71">
          <mxCell style="whiteSpace=wrap;html=1;strokeWidth=2;" vertex="1" parent="1">
            <mxGeometry x="1125" y="1440" width="50" height="30" as="geometry" />
          </mxCell>
        </UserObject>
        <UserObject label="%Entity_Set%" Entity_Set="Coach" Key="CoachName" Other_Attributes="" placeholders="1" id="K_F7ODO9CJiv-tPrbr26-72">
          <mxCell style="whiteSpace=wrap;html=1;strokeWidth=2;" vertex="1" parent="1">
            <mxGeometry x="1834" y="1470" width="60" height="30" as="geometry" />
          </mxCell>
        </UserObject>
        <UserObject label="%Entity_Set%" Entity_Set="Stage" Key="Round, Year" Other_Attributes="" placeholders="1" id="K_F7ODO9CJiv-tPrbr26-73">
          <mxCell style="whiteSpace=wrap;html=1;strokeWidth=2;" vertex="1" parent="1">
            <mxGeometry x="770" y="327.5" width="50" height="30" as="geometry" />
          </mxCell>
        </UserObject>
        <UserObject label="%Entity_Set%" Entity_Set="Winner" Key="Score" Other_Attributes="Round, MatchID" placeholders="1" id="K_F7ODO9CJiv-tPrbr26-74">
          <mxCell style="whiteSpace=wrap;html=1;strokeWidth=2;" vertex="1" parent="1">
            <mxGeometry x="1550" y="1225" width="60" height="30" as="geometry" />
          </mxCell>
        </UserObject>
        <UserObject label="%Entity_Set%" Entity_Set="Official" Key="OfficialName, MatchID" Other_Attributes="" placeholders="1" id="K_F7ODO9CJiv-tPrbr26-75">
          <mxCell style="whiteSpace=wrap;html=1;strokeWidth=2;" vertex="1" parent="1">
            <mxGeometry x="2120" y="470" width="60" height="30" as="geometry" />
          </mxCell>
        </UserObject>
        <UserObject label="%Entity_Set%" Entity_Set="Goal" Key="MatchID, Scorer, Time" Other_Attributes="TeamName, Assist, Type (Regular, Penalty, Own)" placeholders="1" id="K_F7ODO9CJiv-tPrbr26-77">
          <mxCell style="whiteSpace=wrap;html=1;strokeWidth=2;" vertex="1" parent="1">
            <mxGeometry x="800" y="1060" width="50" height="30" as="geometry" />
          </mxCell>
        </UserObject>
        <UserObject label="%Entity_Set%" Entity_Set="Penalty" Key="MatchID, Time, Result" Other_Attributes="TeamName" placeholders="1" id="K_F7ODO9CJiv-tPrbr26-78">
          <mxCell style="whiteSpace=wrap;html=1;strokeWidth=2;" vertex="1" parent="1">
            <mxGeometry x="1970" y="1010" width="60" height="30" as="geometry" />
          </mxCell>
        </UserObject>
        <UserObject label="%Entity_Set%" Entity_Set="Card" Key="MatchID, Time, PlayerName" Other_Attributes="Type (Red, Yellow, Yellow-Red), TeamName" placeholders="1" id="K_F7ODO9CJiv-tPrbr26-79">
          <mxCell style="whiteSpace=wrap;html=1;strokeWidth=2;" vertex="1" parent="1">
            <mxGeometry x="510" y="930" width="50" height="30" as="geometry" />
          </mxCell>
        </UserObject>
        <UserObject label="%Entity_Set%" Entity_Set="Substitution" Key="MatchID, Time, PlayerIn" Other_Attributes="PlayerOut, TeamName" placeholders="1" id="K_F7ODO9CJiv-tPrbr26-80">
          <mxCell style="whiteSpace=wrap;html=1;strokeWidth=2;" vertex="1" parent="1">
            <mxGeometry x="160" y="590" width="90" height="30" as="geometry" />
          </mxCell>
        </UserObject>
        <UserObject label="%Entity_Set%" Entity_Set="Player" Key="PlayerName" Other_Attributes="TeamName, Role (Captain, Regular)" placeholders="1" id="K_F7ODO9CJiv-tPrbr26-81">
          <mxCell style="whiteSpace=wrap;html=1;strokeWidth=2;" vertex="1" parent="1">
            <mxGeometry x="260" y="1480" width="60" height="30" as="geometry" />
          </mxCell>
        </UserObject>
        <UserObject label="%Entity_Set%" Entity_Set="Country" Key="CountryName" Other_Attributes="" placeholders="1" id="K_F7ODO9CJiv-tPrbr26-82">
          <mxCell style="whiteSpace=wrap;html=1;strokeWidth=2;" vertex="1" parent="1">
            <mxGeometry x="407" y="90" width="70" height="30" as="geometry" />
          </mxCell>
        </UserObject>
        <mxCell id="K_F7ODO9CJiv-tPrbr26-116" value="HostedBy" style="shape=rhombus;perimeter=rhombusPerimeter;whiteSpace=wrap;html=1;align=center;strokeWidth=2;" vertex="1" parent="1">
          <mxGeometry x="1180" y="140" width="120" height="60" as="geometry" />
        </mxCell>
        <mxCell id="K_F7ODO9CJiv-tPrbr26-126" value="1" style="html=1;verticalAlign=bottom;labelBackgroundColor=none;startArrow=oval;startFill=1;startSize=8;endArrow=none;rounded=0;entryX=0;entryY=0.5;entryDx=0;entryDy=0;exitX=1.095;exitY=0.455;exitDx=0;exitDy=0;exitPerimeter=0;" edge="1" parent="1" source="K_F7ODO9CJiv-tPrbr26-68" target="K_F7ODO9CJiv-tPrbr26-116">
          <mxGeometry x="-0.7694" y="1" relative="1" as="geometry">
            <mxPoint x="1530" y="210" as="sourcePoint" />
            <mxPoint x="1810" y="210" as="targetPoint" />
            <mxPoint as="offset" />
          </mxGeometry>
        </mxCell>
        <mxCell id="K_F7ODO9CJiv-tPrbr26-127" value="N" style="html=1;verticalAlign=bottom;labelBackgroundColor=none;startArrow=oval;startFill=0;startSize=8;endArrow=none;rounded=0;entryX=1;entryY=1;entryDx=0;entryDy=0;exitX=-0.067;exitY=0.41;exitDx=0;exitDy=0;exitPerimeter=0;" edge="1" parent="1" source="K_F7ODO9CJiv-tPrbr26-70" target="K_F7ODO9CJiv-tPrbr26-116">
          <mxGeometry x="-0.6238" y="-6" relative="1" as="geometry">
            <mxPoint x="1430" y="130" as="sourcePoint" />
            <mxPoint x="1020" y="150" as="targetPoint" />
            <mxPoint as="offset" />
          </mxGeometry>
        </mxCell>
        <mxCell id="K_F7ODO9CJiv-tPrbr26-128" value="PlayedAt" style="shape=rhombus;perimeter=rhombusPerimeter;whiteSpace=wrap;html=1;align=center;strokeWidth=2;" vertex="1" parent="1">
          <mxGeometry x="1340" y="380" width="120" height="60" as="geometry" />
        </mxCell>
        <mxCell id="K_F7ODO9CJiv-tPrbr26-129" value="1" style="html=1;verticalAlign=bottom;labelBackgroundColor=none;startArrow=oval;startFill=1;startSize=8;endArrow=none;rounded=0;entryX=0.5;entryY=1;entryDx=0;entryDy=0;exitX=0.542;exitY=-0.175;exitDx=0;exitDy=0;exitPerimeter=0;" edge="1" parent="1" source="K_F7ODO9CJiv-tPrbr26-69" target="K_F7ODO9CJiv-tPrbr26-128">
          <mxGeometry x="-0.9811" y="5" relative="1" as="geometry">
            <mxPoint x="1475" y="174" as="sourcePoint" />
            <mxPoint x="1820" y="220" as="targetPoint" />
            <mxPoint as="offset" />
          </mxGeometry>
        </mxCell>
        <mxCell id="K_F7ODO9CJiv-tPrbr26-130" value="1" style="html=1;verticalAlign=bottom;labelBackgroundColor=none;startArrow=oval;startFill=1;startSize=8;endArrow=none;rounded=0;entryX=0.5;entryY=0;entryDx=0;entryDy=0;exitX=0.476;exitY=1.224;exitDx=0;exitDy=0;exitPerimeter=0;" edge="1" parent="1" source="K_F7ODO9CJiv-tPrbr26-70" target="K_F7ODO9CJiv-tPrbr26-128">
          <mxGeometry x="-0.8761" y="-3" relative="1" as="geometry">
            <mxPoint x="1780" y="200" as="sourcePoint" />
            <mxPoint x="1760" y="190" as="targetPoint" />
            <mxPoint as="offset" />
          </mxGeometry>
        </mxCell>
        <mxCell id="K_F7ODO9CJiv-tPrbr26-131" value="Participates" style="shape=rhombus;perimeter=rhombusPerimeter;whiteSpace=wrap;html=1;align=center;strokeWidth=2;" vertex="1" parent="1">
          <mxGeometry x="1060" y="1030" width="120" height="60" as="geometry" />
        </mxCell>
        <mxCell id="K_F7ODO9CJiv-tPrbr26-132" value="M" style="html=1;verticalAlign=bottom;labelBackgroundColor=none;startArrow=oval;startFill=1;startSize=8;endArrow=none;rounded=0;entryX=0.5;entryY=1;entryDx=0;entryDy=0;exitX=0.496;exitY=-0.122;exitDx=0;exitDy=0;exitPerimeter=0;" edge="1" parent="1" source="K_F7ODO9CJiv-tPrbr26-71" target="K_F7ODO9CJiv-tPrbr26-131">
          <mxGeometry x="-0.9351" y="10" relative="1" as="geometry">
            <mxPoint x="1390" y="990" as="sourcePoint" />
            <mxPoint x="1465" y="940" as="targetPoint" />
            <mxPoint as="offset" />
          </mxGeometry>
        </mxCell>
        <mxCell id="K_F7ODO9CJiv-tPrbr26-133" value="N" style="html=1;verticalAlign=bottom;labelBackgroundColor=none;startArrow=oval;startFill=1;startSize=8;endArrow=none;rounded=0;entryX=0.5;entryY=0;entryDx=0;entryDy=0;exitX=0.514;exitY=1.126;exitDx=0;exitDy=0;exitPerimeter=0;" edge="1" parent="1" source="K_F7ODO9CJiv-tPrbr26-69" target="K_F7ODO9CJiv-tPrbr26-131">
          <mxGeometry x="-0.8571" y="-12" relative="1" as="geometry">
            <mxPoint x="1631" y="927" as="sourcePoint" />
            <mxPoint x="1665" y="985" as="targetPoint" />
            <mxPoint as="offset" />
          </mxGeometry>
        </mxCell>
        <mxCell id="K_F7ODO9CJiv-tPrbr26-134" value="ManagedBy" style="shape=rhombus;perimeter=rhombusPerimeter;whiteSpace=wrap;html=1;align=center;strokeWidth=2;" vertex="1" parent="1">
          <mxGeometry x="1460" y="1450" width="120" height="60" as="geometry" />
        </mxCell>
        <mxCell id="K_F7ODO9CJiv-tPrbr26-135" value="1" style="html=1;verticalAlign=bottom;labelBackgroundColor=none;startArrow=oval;startFill=1;startSize=8;endArrow=none;rounded=0;entryX=0;entryY=0.5;entryDx=0;entryDy=0;exitX=1.066;exitY=0.475;exitDx=0;exitDy=0;exitPerimeter=0;" edge="1" parent="1" source="K_F7ODO9CJiv-tPrbr26-71" target="K_F7ODO9CJiv-tPrbr26-134">
          <mxGeometry x="-0.7694" y="1" relative="1" as="geometry">
            <mxPoint x="1600" y="1019" as="sourcePoint" />
            <mxPoint x="1945" y="1065" as="targetPoint" />
            <mxPoint as="offset" />
          </mxGeometry>
        </mxCell>
        <mxCell id="K_F7ODO9CJiv-tPrbr26-136" value="1" style="html=1;verticalAlign=bottom;labelBackgroundColor=none;startArrow=oval;startFill=0;startSize=8;endArrow=none;rounded=0;entryX=1;entryY=0.5;entryDx=0;entryDy=0;exitX=-0.075;exitY=0.505;exitDx=0;exitDy=0;exitPerimeter=0;" edge="1" parent="1" source="K_F7ODO9CJiv-tPrbr26-72" target="K_F7ODO9CJiv-tPrbr26-134">
          <mxGeometry x="-0.6238" y="-6" relative="1" as="geometry">
            <mxPoint x="1851" y="977" as="sourcePoint" />
            <mxPoint x="1885" y="1035" as="targetPoint" />
            <mxPoint as="offset" />
          </mxGeometry>
        </mxCell>
        <mxCell id="K_F7ODO9CJiv-tPrbr26-142" value="CaptainedBy" style="shape=rhombus;perimeter=rhombusPerimeter;whiteSpace=wrap;html=1;align=center;strokeWidth=2;" vertex="1" parent="1">
          <mxGeometry x="642" y="1465" width="120" height="60" as="geometry" />
        </mxCell>
        <mxCell id="K_F7ODO9CJiv-tPrbr26-143" value="1" style="html=1;verticalAlign=bottom;labelBackgroundColor=none;startArrow=oval;startFill=0;startSize=8;endArrow=none;rounded=0;entryX=0;entryY=0.5;entryDx=0;entryDy=0;exitX=1.094;exitY=0.528;exitDx=0;exitDy=0;exitPerimeter=0;" edge="1" parent="1" source="K_F7ODO9CJiv-tPrbr26-81" target="K_F7ODO9CJiv-tPrbr26-142">
          <mxGeometry x="-0.7694" y="1" relative="1" as="geometry">
            <mxPoint x="580" y="1474" as="sourcePoint" />
            <mxPoint x="987" y="1395" as="targetPoint" />
            <mxPoint as="offset" />
          </mxGeometry>
        </mxCell>
        <mxCell id="K_F7ODO9CJiv-tPrbr26-144" value="1" style="html=1;verticalAlign=bottom;labelBackgroundColor=none;startArrow=oval;startFill=1;startSize=8;endArrow=none;rounded=0;entryX=1;entryY=0.5;entryDx=0;entryDy=0;exitX=-0.113;exitY=0.443;exitDx=0;exitDy=0;exitPerimeter=0;" edge="1" parent="1" source="K_F7ODO9CJiv-tPrbr26-71" target="K_F7ODO9CJiv-tPrbr26-142">
          <mxGeometry x="-0.6238" y="-6" relative="1" as="geometry">
            <mxPoint x="1398" y="1125" as="sourcePoint" />
            <mxPoint x="1487" y="1045" as="targetPoint" />
            <mxPoint as="offset" />
          </mxGeometry>
        </mxCell>
        <mxCell id="K_F7ODO9CJiv-tPrbr26-148" value="ScoredIn" style="shape=rhombus;perimeter=rhombusPerimeter;whiteSpace=wrap;html=1;align=center;strokeWidth=2;" vertex="1" parent="1">
          <mxGeometry x="910" y="880" width="120" height="60" as="geometry" />
        </mxCell>
        <mxCell id="K_F7ODO9CJiv-tPrbr26-149" value="N" style="html=1;verticalAlign=bottom;labelBackgroundColor=none;startArrow=oval;startFill=1;startSize=8;endArrow=none;rounded=0;entryX=0;entryY=1;entryDx=0;entryDy=0;exitX=0.57;exitY=-0.14;exitDx=0;exitDy=0;exitPerimeter=0;" edge="1" parent="1" source="K_F7ODO9CJiv-tPrbr26-77" target="K_F7ODO9CJiv-tPrbr26-148">
          <mxGeometry x="-0.7694" y="1" relative="1" as="geometry">
            <mxPoint x="662" y="1104" as="sourcePoint" />
            <mxPoint x="1069" y="1025" as="targetPoint" />
            <mxPoint as="offset" />
          </mxGeometry>
        </mxCell>
        <mxCell id="K_F7ODO9CJiv-tPrbr26-150" value="1" style="html=1;verticalAlign=bottom;labelBackgroundColor=none;startArrow=oval;startFill=0;startSize=8;endArrow=none;rounded=0;entryX=1;entryY=0;entryDx=0;entryDy=0;exitX=-0.083;exitY=1.147;exitDx=0;exitDy=0;exitPerimeter=0;" edge="1" parent="1" source="K_F7ODO9CJiv-tPrbr26-69" target="K_F7ODO9CJiv-tPrbr26-148">
          <mxGeometry x="-0.6316" y="-6" relative="1" as="geometry">
            <mxPoint x="1480" y="755" as="sourcePoint" />
            <mxPoint x="1569" y="675" as="targetPoint" />
            <mxPoint as="offset" />
          </mxGeometry>
        </mxCell>
        <mxCell id="K_F7ODO9CJiv-tPrbr26-151" value="Scores" style="shape=rhombus;perimeter=rhombusPerimeter;whiteSpace=wrap;html=1;align=center;strokeWidth=2;" vertex="1" parent="1">
          <mxGeometry x="600" y="1210" width="120" height="60" as="geometry" />
        </mxCell>
        <mxCell id="K_F7ODO9CJiv-tPrbr26-152" value="N" style="html=1;verticalAlign=bottom;labelBackgroundColor=none;startArrow=oval;startFill=1;startSize=8;endArrow=none;rounded=0;entryX=1;entryY=0;entryDx=0;entryDy=0;exitX=0.461;exitY=1.145;exitDx=0;exitDy=0;exitPerimeter=0;" edge="1" parent="1" source="K_F7ODO9CJiv-tPrbr26-77" target="K_F7ODO9CJiv-tPrbr26-151">
          <mxGeometry x="-0.592" y="17" relative="1" as="geometry">
            <mxPoint x="430" y="1334" as="sourcePoint" />
            <mxPoint x="837" y="1255" as="targetPoint" />
            <mxPoint as="offset" />
          </mxGeometry>
        </mxCell>
        <mxCell id="K_F7ODO9CJiv-tPrbr26-153" value="M" style="html=1;verticalAlign=bottom;labelBackgroundColor=none;startArrow=oval;startFill=0;startSize=8;endArrow=none;rounded=0;entryX=0;entryY=1;entryDx=0;entryDy=0;exitX=1.077;exitY=-0.261;exitDx=0;exitDy=0;exitPerimeter=0;" edge="1" parent="1" source="K_F7ODO9CJiv-tPrbr26-81" target="K_F7ODO9CJiv-tPrbr26-151">
          <mxGeometry x="-0.9864" y="8" relative="1" as="geometry">
            <mxPoint x="688" y="1305" as="sourcePoint" />
            <mxPoint x="777" y="1225" as="targetPoint" />
            <mxPoint as="offset" />
          </mxGeometry>
        </mxCell>
        <mxCell id="K_F7ODO9CJiv-tPrbr26-154" value="TakenIn" style="shape=rhombus;perimeter=rhombusPerimeter;whiteSpace=wrap;html=1;align=center;strokeWidth=2;" vertex="1" parent="1">
          <mxGeometry x="1540" y="767" width="120" height="60" as="geometry" />
        </mxCell>
        <mxCell id="K_F7ODO9CJiv-tPrbr26-155" value="N" style="html=1;verticalAlign=bottom;labelBackgroundColor=none;startArrow=oval;startFill=1;startSize=8;endArrow=none;rounded=0;entryX=0;entryY=0.5;entryDx=0;entryDy=0;exitX=1.059;exitY=0.482;exitDx=0;exitDy=0;exitPerimeter=0;" edge="1" parent="1" source="K_F7ODO9CJiv-tPrbr26-69" target="K_F7ODO9CJiv-tPrbr26-154">
          <mxGeometry x="-0.7694" y="1" relative="1" as="geometry">
            <mxPoint x="1612" y="669" as="sourcePoint" />
            <mxPoint x="2019" y="590" as="targetPoint" />
            <mxPoint as="offset" />
          </mxGeometry>
        </mxCell>
        <mxCell id="K_F7ODO9CJiv-tPrbr26-156" value="1" style="html=1;verticalAlign=bottom;labelBackgroundColor=none;startArrow=oval;startFill=0;startSize=8;endArrow=none;rounded=0;entryX=1;entryY=0.5;entryDx=0;entryDy=0;exitX=-0.069;exitY=0.527;exitDx=0;exitDy=0;exitPerimeter=0;" edge="1" parent="1" source="K_F7ODO9CJiv-tPrbr26-78" target="K_F7ODO9CJiv-tPrbr26-154">
          <mxGeometry x="-0.6238" y="-6" relative="1" as="geometry">
            <mxPoint x="1870" y="640" as="sourcePoint" />
            <mxPoint x="1959" y="560" as="targetPoint" />
            <mxPoint as="offset" />
          </mxGeometry>
        </mxCell>
        <mxCell id="K_F7ODO9CJiv-tPrbr26-157" value="TakenIn" style="shape=rhombus;perimeter=rhombusPerimeter;whiteSpace=wrap;html=1;align=center;strokeWidth=2;" vertex="1" parent="1">
          <mxGeometry x="642" y="780" width="120" height="60" as="geometry" />
        </mxCell>
        <mxCell id="K_F7ODO9CJiv-tPrbr26-158" value="N" style="html=1;verticalAlign=bottom;labelBackgroundColor=none;startArrow=oval;startFill=0;startSize=8;endArrow=none;rounded=0;entryX=0;entryY=1;entryDx=0;entryDy=0;exitX=1.14;exitY=-0.016;exitDx=0;exitDy=0;exitPerimeter=0;" edge="1" parent="1" source="K_F7ODO9CJiv-tPrbr26-79" target="K_F7ODO9CJiv-tPrbr26-157">
          <mxGeometry x="-0.7694" y="1" relative="1" as="geometry">
            <mxPoint x="450" y="1019" as="sourcePoint" />
            <mxPoint x="925" y="945" as="targetPoint" />
            <mxPoint as="offset" />
          </mxGeometry>
        </mxCell>
        <mxCell id="K_F7ODO9CJiv-tPrbr26-159" value="1" style="html=1;verticalAlign=bottom;labelBackgroundColor=none;startArrow=oval;startFill=0;startSize=8;endArrow=none;rounded=0;entryX=1;entryY=0;entryDx=0;entryDy=0;exitX=-0.082;exitY=0.488;exitDx=0;exitDy=0;exitPerimeter=0;" edge="1" parent="1" source="K_F7ODO9CJiv-tPrbr26-69" target="K_F7ODO9CJiv-tPrbr26-157">
          <mxGeometry x="-0.8704" y="-7" relative="1" as="geometry">
            <mxPoint x="1372" y="701" as="sourcePoint" />
            <mxPoint x="1425" y="595" as="targetPoint" />
            <mxPoint as="offset" />
          </mxGeometry>
        </mxCell>
        <mxCell id="K_F7ODO9CJiv-tPrbr26-160" value="SubstitutedIn" style="shape=rhombus;perimeter=rhombusPerimeter;whiteSpace=wrap;html=1;align=center;strokeWidth=2;" vertex="1" parent="1">
          <mxGeometry x="570" y="575" width="120" height="60" as="geometry" />
        </mxCell>
        <mxCell id="K_F7ODO9CJiv-tPrbr26-161" value="1" style="html=1;verticalAlign=bottom;labelBackgroundColor=none;startArrow=oval;startFill=1;startSize=8;endArrow=none;rounded=0;entryX=1;entryY=0.5;entryDx=0;entryDy=0;exitX=-0.111;exitY=-0.11;exitDx=0;exitDy=0;exitPerimeter=0;" edge="1" parent="1" source="K_F7ODO9CJiv-tPrbr26-69" target="K_F7ODO9CJiv-tPrbr26-160">
          <mxGeometry x="-0.9643" y="-6" relative="1" as="geometry">
            <mxPoint x="1050" y="559" as="sourcePoint" />
            <mxPoint x="1457" y="480" as="targetPoint" />
            <mxPoint y="1" as="offset" />
          </mxGeometry>
        </mxCell>
        <mxCell id="K_F7ODO9CJiv-tPrbr26-162" value="N" style="html=1;verticalAlign=bottom;labelBackgroundColor=none;startArrow=oval;startFill=0;startSize=8;endArrow=none;rounded=0;entryX=0;entryY=0.5;entryDx=0;entryDy=0;exitX=1.099;exitY=0.451;exitDx=0;exitDy=0;exitPerimeter=0;" edge="1" parent="1" source="K_F7ODO9CJiv-tPrbr26-80" target="K_F7ODO9CJiv-tPrbr26-160">
          <mxGeometry x="-0.8792" y="4" relative="1" as="geometry">
            <mxPoint x="748" y="850" as="sourcePoint" />
            <mxPoint x="837" y="770" as="targetPoint" />
            <mxPoint as="offset" />
          </mxGeometry>
        </mxCell>
        <mxCell id="K_F7ODO9CJiv-tPrbr26-164" value="ParticipatesIn" style="shape=rhombus;perimeter=rhombusPerimeter;whiteSpace=wrap;html=1;align=center;strokeWidth=2;" vertex="1" parent="1">
          <mxGeometry x="90" y="825" width="120" height="60" as="geometry" />
        </mxCell>
        <mxCell id="K_F7ODO9CJiv-tPrbr26-165" value="N" style="html=1;verticalAlign=bottom;labelBackgroundColor=none;startArrow=oval;startFill=1;startSize=8;endArrow=none;rounded=0;entryX=0.5;entryY=0;entryDx=0;entryDy=0;exitX=0.553;exitY=1.188;exitDx=0;exitDy=0;exitPerimeter=0;" edge="1" parent="1" source="K_F7ODO9CJiv-tPrbr26-80" target="K_F7ODO9CJiv-tPrbr26-164">
          <mxGeometry x="-0.401" y="10" relative="1" as="geometry">
            <mxPoint x="70" y="1140" as="sourcePoint" />
            <mxPoint x="967" y="1505" as="targetPoint" />
            <mxPoint as="offset" />
          </mxGeometry>
        </mxCell>
        <mxCell id="K_F7ODO9CJiv-tPrbr26-166" value="M" style="html=1;verticalAlign=bottom;labelBackgroundColor=none;startArrow=oval;startFill=0;startSize=8;endArrow=none;rounded=0;entryX=0.5;entryY=1;entryDx=0;entryDy=0;exitX=-0.048;exitY=-0.175;exitDx=0;exitDy=0;exitPerimeter=0;" edge="1" parent="1" source="K_F7ODO9CJiv-tPrbr26-81" target="K_F7ODO9CJiv-tPrbr26-164">
          <mxGeometry x="-0.6303" y="-6" relative="1" as="geometry">
            <mxPoint x="270" y="1290" as="sourcePoint" />
            <mxPoint x="907" y="1475" as="targetPoint" />
            <mxPoint as="offset" />
          </mxGeometry>
        </mxCell>
        <mxCell id="K_F7ODO9CJiv-tPrbr26-171" value="OfficiatedBy" style="shape=rhombus;perimeter=rhombusPerimeter;whiteSpace=wrap;html=1;align=center;strokeWidth=2;" vertex="1" parent="1">
          <mxGeometry x="1900" y="580" width="120" height="60" as="geometry" />
        </mxCell>
        <mxCell id="K_F7ODO9CJiv-tPrbr26-172" value="1" style="html=1;verticalAlign=bottom;labelBackgroundColor=none;startArrow=oval;startFill=1;startSize=8;endArrow=none;rounded=0;entryX=0;entryY=1;entryDx=0;entryDy=0;exitX=1.029;exitY=-0.167;exitDx=0;exitDy=0;exitPerimeter=0;" edge="1" parent="1" source="K_F7ODO9CJiv-tPrbr26-69" target="K_F7ODO9CJiv-tPrbr26-171">
          <mxGeometry x="-0.7694" y="1" relative="1" as="geometry">
            <mxPoint x="1674" y="529" as="sourcePoint" />
            <mxPoint x="2149" y="455" as="targetPoint" />
            <mxPoint as="offset" />
          </mxGeometry>
        </mxCell>
        <mxCell id="K_F7ODO9CJiv-tPrbr26-173" value="N" style="html=1;verticalAlign=bottom;labelBackgroundColor=none;startArrow=oval;startFill=0;startSize=8;endArrow=none;rounded=0;entryX=1;entryY=0;entryDx=0;entryDy=0;exitX=-0.088;exitY=1.067;exitDx=0;exitDy=0;exitPerimeter=0;" edge="1" parent="1" source="K_F7ODO9CJiv-tPrbr26-75" target="K_F7ODO9CJiv-tPrbr26-171">
          <mxGeometry x="-0.6238" y="-6" relative="1" as="geometry">
            <mxPoint x="2036" y="531" as="sourcePoint" />
            <mxPoint x="2089" y="425" as="targetPoint" />
            <mxPoint as="offset" />
          </mxGeometry>
        </mxCell>
        <mxCell id="K_F7ODO9CJiv-tPrbr26-174" value="Receives" style="shape=rhombus;perimeter=rhombusPerimeter;whiteSpace=wrap;html=1;align=center;strokeWidth=2;" vertex="1" parent="1">
          <mxGeometry x="380" y="1050" width="120" height="60" as="geometry" />
        </mxCell>
        <mxCell id="K_F7ODO9CJiv-tPrbr26-175" value="N" style="html=1;verticalAlign=bottom;labelBackgroundColor=none;startArrow=oval;startFill=1;startSize=8;endArrow=none;rounded=0;entryX=0.5;entryY=0;entryDx=0;entryDy=0;exitX=0.281;exitY=1.169;exitDx=0;exitDy=0;exitPerimeter=0;" edge="1" parent="1" source="K_F7ODO9CJiv-tPrbr26-79" target="K_F7ODO9CJiv-tPrbr26-174">
          <mxGeometry x="-0.401" y="10" relative="1" as="geometry">
            <mxPoint x="360" y="1060" as="sourcePoint" />
            <mxPoint x="1097" y="1504" as="targetPoint" />
            <mxPoint as="offset" />
          </mxGeometry>
        </mxCell>
        <mxCell id="K_F7ODO9CJiv-tPrbr26-176" value="M" style="html=1;verticalAlign=bottom;labelBackgroundColor=none;startArrow=oval;startFill=0;startSize=8;endArrow=none;rounded=0;entryX=0.5;entryY=1;entryDx=0;entryDy=0;exitX=0.279;exitY=-0.204;exitDx=0;exitDy=0;exitPerimeter=0;" edge="1" parent="1" source="K_F7ODO9CJiv-tPrbr26-81" target="K_F7ODO9CJiv-tPrbr26-174">
          <mxGeometry x="-0.6303" y="-6" relative="1" as="geometry">
            <mxPoint x="427" y="1454" as="sourcePoint" />
            <mxPoint x="1037" y="1474" as="targetPoint" />
            <mxPoint as="offset" />
          </mxGeometry>
        </mxCell>
        <mxCell id="K_F7ODO9CJiv-tPrbr26-177" value="Hosts" style="shape=rhombus;perimeter=rhombusPerimeter;whiteSpace=wrap;html=1;align=center;strokeWidth=2;" vertex="1" parent="1">
          <mxGeometry x="677" y="70" width="120" height="60" as="geometry" />
        </mxCell>
        <mxCell id="K_F7ODO9CJiv-tPrbr26-178" value="1" style="html=1;verticalAlign=bottom;labelBackgroundColor=none;startArrow=oval;startFill=0;startSize=8;endArrow=none;rounded=0;entryX=0;entryY=0.5;entryDx=0;entryDy=0;exitX=1.08;exitY=0.434;exitDx=0;exitDy=0;exitPerimeter=0;" edge="1" parent="1" source="K_F7ODO9CJiv-tPrbr26-82" target="K_F7ODO9CJiv-tPrbr26-177">
          <mxGeometry x="-0.7694" y="1" relative="1" as="geometry">
            <mxPoint x="427" y="296" as="sourcePoint" />
            <mxPoint x="1048" y="215" as="targetPoint" />
            <mxPoint as="offset" />
          </mxGeometry>
        </mxCell>
        <mxCell id="K_F7ODO9CJiv-tPrbr26-179" value="N" style="html=1;verticalAlign=bottom;labelBackgroundColor=none;startArrow=oval;startFill=1;startSize=8;endArrow=none;rounded=0;entryX=1;entryY=0.5;entryDx=0;entryDy=0;exitX=-0.102;exitY=0.455;exitDx=0;exitDy=0;exitPerimeter=0;" edge="1" parent="1" source="K_F7ODO9CJiv-tPrbr26-68" target="K_F7ODO9CJiv-tPrbr26-177">
          <mxGeometry x="-0.6238" y="-6" relative="1" as="geometry">
            <mxPoint x="980" y="283" as="sourcePoint" />
            <mxPoint x="988" y="185" as="targetPoint" />
            <mxPoint as="offset" />
          </mxGeometry>
        </mxCell>
        <mxCell id="K_F7ODO9CJiv-tPrbr26-180" value="ConsistsOf" style="shape=rhombus;perimeter=rhombusPerimeter;whiteSpace=wrap;html=1;align=center;strokeWidth=2;" vertex="1" parent="1">
          <mxGeometry x="808" y="432.5" width="120" height="60" as="geometry" />
        </mxCell>
        <mxCell id="K_F7ODO9CJiv-tPrbr26-181" value="1" style="html=1;verticalAlign=bottom;labelBackgroundColor=none;startArrow=oval;startFill=1;startSize=8;endArrow=none;rounded=0;entryX=0;entryY=0;entryDx=0;entryDy=0;exitX=0.5;exitY=1.15;exitDx=0;exitDy=0;exitPerimeter=0;" edge="1" parent="1" source="K_F7ODO9CJiv-tPrbr26-73" target="K_F7ODO9CJiv-tPrbr26-180">
          <mxGeometry x="-0.5239" y="-11" relative="1" as="geometry">
            <mxPoint x="613.5" y="500.5" as="sourcePoint" />
            <mxPoint x="1178.5" y="612.5" as="targetPoint" />
            <mxPoint as="offset" />
          </mxGeometry>
        </mxCell>
        <mxCell id="K_F7ODO9CJiv-tPrbr26-182" value="N" style="html=1;verticalAlign=bottom;labelBackgroundColor=none;startArrow=oval;startFill=0;startSize=8;endArrow=none;rounded=0;entryX=1;entryY=1;entryDx=0;entryDy=0;exitX=0.291;exitY=-0.204;exitDx=0;exitDy=0;exitPerimeter=0;" edge="1" parent="1" source="K_F7ODO9CJiv-tPrbr26-69" target="K_F7ODO9CJiv-tPrbr26-180">
          <mxGeometry x="-0.6238" y="-6" relative="1" as="geometry">
            <mxPoint x="1575" y="514" as="sourcePoint" />
            <mxPoint x="1620.5" y="595" as="targetPoint" />
            <mxPoint as="offset" />
          </mxGeometry>
        </mxCell>
        <mxCell id="K_F7ODO9CJiv-tPrbr26-183" value="Determines" style="shape=rhombus;perimeter=rhombusPerimeter;whiteSpace=wrap;html=1;align=center;strokeWidth=2;" vertex="1" parent="1">
          <mxGeometry x="1300" y="1000" width="120" height="60" as="geometry" />
        </mxCell>
        <mxCell id="K_F7ODO9CJiv-tPrbr26-184" value="1" style="html=1;verticalAlign=bottom;labelBackgroundColor=none;startArrow=oval;startFill=1;startSize=8;endArrow=none;rounded=0;entryX=0;entryY=0.5;entryDx=0;entryDy=0;exitX=0.908;exitY=1.196;exitDx=0;exitDy=0;exitPerimeter=0;" edge="1" parent="1" source="K_F7ODO9CJiv-tPrbr26-69" target="K_F7ODO9CJiv-tPrbr26-183">
          <mxGeometry x="-0.7694" y="1" relative="1" as="geometry">
            <mxPoint x="1430" y="798" as="sourcePoint" />
            <mxPoint x="1995" y="910" as="targetPoint" />
            <mxPoint as="offset" />
          </mxGeometry>
        </mxCell>
        <mxCell id="K_F7ODO9CJiv-tPrbr26-185" value="1" style="html=1;verticalAlign=bottom;labelBackgroundColor=none;startArrow=oval;startFill=0;startSize=8;endArrow=none;rounded=0;entryX=1;entryY=0.5;entryDx=0;entryDy=0;exitX=-0.09;exitY=0.352;exitDx=0;exitDy=0;exitPerimeter=0;" edge="1" parent="1" source="K_F7ODO9CJiv-tPrbr26-74" target="K_F7ODO9CJiv-tPrbr26-183">
          <mxGeometry x="-0.6245" y="-6" relative="1" as="geometry">
            <mxPoint x="1889" y="799" as="sourcePoint" />
            <mxPoint x="1935" y="880" as="targetPoint" />
            <mxPoint as="offset" />
          </mxGeometry>
        </mxCell>
        <mxCell id="K_F7ODO9CJiv-tPrbr26-189" value="" style="group" connectable="0" vertex="1" parent="1">
          <mxGeometry x="2080" y="95" width="100" height="50" as="geometry" />
        </mxCell>
        <mxCell id="K_F7ODO9CJiv-tPrbr26-186" value="" style="rounded=0;whiteSpace=wrap;html=1;strokeWidth=2;" vertex="1" parent="K_F7ODO9CJiv-tPrbr26-189">
          <mxGeometry width="100" height="50" as="geometry" />
        </mxCell>
        <UserObject label="%Entity_Set%" Entity_Set="OfficialRole" Key="Role (partial key)" Other_Attributes="Referee, AR1, AR2, 4th, VAR" placeholders="1" id="K_F7ODO9CJiv-tPrbr26-76">
          <mxCell style="whiteSpace=wrap;html=1;strokeWidth=2;" vertex="1" parent="K_F7ODO9CJiv-tPrbr26-189">
            <mxGeometry x="10" y="10" width="80" height="30" as="geometry" />
          </mxCell>
        </UserObject>
        <mxCell id="K_F7ODO9CJiv-tPrbr26-191" value="N" style="html=1;verticalAlign=bottom;labelBackgroundColor=none;startArrow=oval;startFill=1;startSize=8;endArrow=none;rounded=0;exitX=0.471;exitY=1.089;exitDx=0;exitDy=0;exitPerimeter=0;entryX=0.5;entryY=0;entryDx=0;entryDy=0;" edge="1" parent="1" source="K_F7ODO9CJiv-tPrbr26-186" target="K_F7ODO9CJiv-tPrbr26-193">
          <mxGeometry x="0.0537" y="11" relative="1" as="geometry">
            <mxPoint x="1940" y="229" as="sourcePoint" />
            <mxPoint x="2110" y="190" as="targetPoint" />
            <mxPoint as="offset" />
          </mxGeometry>
        </mxCell>
        <mxCell id="K_F7ODO9CJiv-tPrbr26-192" value="1" style="html=1;verticalAlign=bottom;labelBackgroundColor=none;startArrow=oval;startFill=1;startSize=8;endArrow=none;rounded=0;exitX=0.472;exitY=-0.167;exitDx=0;exitDy=0;exitPerimeter=0;entryX=0.5;entryY=1;entryDx=0;entryDy=0;" edge="1" parent="1" source="K_F7ODO9CJiv-tPrbr26-75" target="K_F7ODO9CJiv-tPrbr26-193">
          <mxGeometry x="-0.6238" y="-6" relative="1" as="geometry">
            <mxPoint x="2142" y="321" as="sourcePoint" />
            <mxPoint x="2110" y="300" as="targetPoint" />
            <mxPoint as="offset" />
          </mxGeometry>
        </mxCell>
        <mxCell id="K_F7ODO9CJiv-tPrbr26-194" value="" style="group" connectable="0" vertex="1" parent="1">
          <mxGeometry x="2050" y="260" width="160" height="80" as="geometry" />
        </mxCell>
        <mxCell id="K_F7ODO9CJiv-tPrbr26-193" value="" style="rhombus;whiteSpace=wrap;html=1;strokeWidth=2;" vertex="1" parent="K_F7ODO9CJiv-tPrbr26-194">
          <mxGeometry width="160" height="80" as="geometry" />
        </mxCell>
        <mxCell id="K_F7ODO9CJiv-tPrbr26-190" value="HasRole" style="shape=rhombus;perimeter=rhombusPerimeter;whiteSpace=wrap;html=1;align=center;strokeWidth=2;" vertex="1" parent="K_F7ODO9CJiv-tPrbr26-194">
          <mxGeometry x="20" y="10" width="120" height="60" as="geometry" />
        </mxCell>
        <mxCell id="K_F7ODO9CJiv-tPrbr26-196" style="edgeStyle=none;rounded=0;orthogonalLoop=1;jettySize=auto;html=1;exitX=0.5;exitY=0;exitDx=0;exitDy=0;entryX=1;entryY=0;entryDx=0;entryDy=0;" edge="1" parent="1" source="K_F7ODO9CJiv-tPrbr26-79" target="K_F7ODO9CJiv-tPrbr26-79">
          <mxGeometry relative="1" as="geometry" />
        </mxCell>
      </root>
    </mxGraphModel>
  </diagram>
</mxfile>
